<svg xmlns="http://www.w3.org/2000/svg" viewBox="0 0 1600 1000">
  <defs>
    <linearGradient id="bg" x1="0" y1="0" x2="1" y2="1">
      <stop offset="0" stop-color="#f6bccd"/>
      <stop offset="0.45" stop-color="#f8efe7"/>
      <stop offset="1" stop-color="#8fc9bd"/>
    </linearGradient>
  </defs>
  <rect width="1600" height="1000" fill="url(#bg)"/>
  <rect x="930" y="120" width="430" height="720" rx="210" fill="#fff6f9" opacity=".72"/>
  <path d="M1055 320c35-50 145-50 180 0l94 400H961l94-400z" fill="#c94f72"/>
  <path d="M1059 320h176l-45 119h-86l-45-119z" fill="#fffafd" opacity=".88"/>
  <circle cx="1145" cy="226" r="82" fill="#4f303c"/>
  <circle cx="1145" cy="242" r="58" fill="#d99778"/>
  <path d="M1027 274c74 29 151 27 232-4-30-92-190-117-232 4z" fill="#4f303c"/>
  <path d="M820 720c155 26 381 25 604 0l42 141H778l42-141z" fill="#221b24" opacity=".16"/>
  <rect x="190" y="618" width="520" height="58" rx="29" fill="#fffafd" opacity=".5"/>
  <rect x="190" y="714" width="410" height="58" rx="29" fill="#fffafd" opacity=".42"/>
</svg>
